<svg id="visual" viewBox="0 0 900 600" width="900" height="600" xmlns="http://www.w3.org/2000/svg" xmlns:xlink="http://www.w3.org/1999/xlink" version="1.1"><rect x="0" y="0" width="900" height="600" fill="#FFFFFF"></rect><g transform="translate(370.29537826314646 335.4941256784948)"><path d="M71.8 -178.3C107.8 -103.4 162.2 -114.2 181.6 -98.8C201 -83.3 185.5 -41.7 246.8 35.4C308.2 112.5 446.4 225 471.9 318.2C497.4 411.5 410.2 485.5 312.8 458.7C215.3 432 107.7 304.5 43.4 229.3C-20.8 154.1 -41.7 131.2 -118.2 145.8C-194.7 160.5 -326.8 212.8 -316.4 194.7C-306 176.7 -153 88.3 -79.8 42.3C-6.6 -3.8 -13.3 -7.7 -64.9 -97C-116.4 -186.4 -213 -361.2 -209.7 -455C-206.3 -548.7 -103.2 -561.4 -42.7 -487.5C17.8 -413.6 35.7 -253.1 71.8 -178.3" fill="#d38dd3"></path></g></svg>