<svg id="visual" viewBox="0 0 900 600" width="900" height="600" xmlns="http://www.w3.org/2000/svg" xmlns:xlink="http://www.w3.org/1999/xlink" version="1.1"><rect width="900" height="600" fill="#FFFFFF"></rect><g><g transform="translate(190 460)"><path d="M21.9 -12.9C25 -7.3 21.7 1.7 17 8.1C12.3 14.5 6.2 18.3 -2.2 19.6C-10.5 20.8 -21 19.5 -25.9 13C-30.8 6.5 -30 -5.2 -24.8 -12.1C-19.5 -18.9 -9.8 -20.9 -0.2 -20.8C9.4 -20.7 18.8 -18.5 21.9 -12.9Z" stroke="#dd86ae" fill="none" stroke-width="2"></path></g><g transform="translate(74 354)"><path d="M9.6 -5.4C11.7 -1.9 12.1 2.6 10.2 5.7C8.3 8.9 4.2 10.5 0.4 10.3C-3.3 10 -6.6 7.8 -8.1 4.9C-9.6 2 -9.4 -1.6 -7.8 -4.8C-6.1 -8 -3.1 -10.6 0.4 -10.8C3.8 -11 7.5 -8.8 9.6 -5.4Z" stroke="#dd86ae" fill="none" stroke-width="2"></path></g><g transform="translate(469 154)"><path d="M6.9 -3.7C8.3 -1.7 8.2 1.5 6.8 3.8C5.4 6.1 2.7 7.6 0 7.6C-2.6 7.6 -5.3 6.1 -6.8 3.7C-8.2 1.4 -8.5 -1.9 -7.2 -3.9C-5.9 -6 -3 -6.9 -0.1 -6.9C2.8 -6.8 5.6 -5.8 6.9 -3.7Z" stroke="#dd86ae" fill="none" stroke-width="2"></path></g><g transform="translate(538 201)"><path d="M16.9 -7.6C21 -2.7 22.8 5.7 19.6 10.6C16.4 15.4 8.2 16.7 0.3 16.5C-7.6 16.3 -15.1 14.7 -18.5 9.7C-21.9 4.8 -21.2 -3.5 -17.4 -8.2C-13.6 -13 -6.8 -14.1 -0.2 -14C6.4 -13.9 12.8 -12.5 16.9 -7.6Z" stroke="#dd86ae" fill="none" stroke-width="2"></path></g><g transform="translate(15 582)"><path d="M22.1 -11.3C26.9 -4.5 27.8 6 23.4 13.3C19.1 20.5 9.5 24.4 0 24.4C-9.6 24.4 -19.1 20.5 -21.8 14.2C-24.5 7.9 -20.4 -0.7 -15.6 -7.5C-10.8 -14.3 -5.4 -19.3 1.6 -20.2C8.7 -21.2 17.3 -18.1 22.1 -11.3Z" stroke="#dd86ae" fill="none" stroke-width="2"></path></g><g transform="translate(650 441)"><path d="M14.2 -8.7C16.2 -4.8 13.9 1 10.9 5.1C7.8 9.3 3.9 11.8 -0.6 12.1C-5 12.4 -10 10.6 -12.4 6.8C-14.8 3 -14.5 -2.6 -12 -6.7C-9.5 -10.9 -4.8 -13.5 0.7 -13.9C6.1 -14.3 12.3 -12.5 14.2 -8.7Z" stroke="#dd86ae" fill="none" stroke-width="2"></path></g><g transform="translate(747 285)"><path d="M18.4 -8.7C22.3 -3.8 22.9 4.8 19.2 10.7C15.6 16.6 7.8 19.8 0.5 19.4C-6.7 19.1 -13.4 15.4 -17 9.5C-20.6 3.6 -21.1 -4.4 -17.7 -9C-14.4 -13.5 -7.2 -14.5 0 -14.5C7.2 -14.5 14.5 -13.5 18.4 -8.7Z" stroke="#dd86ae" fill="none" stroke-width="2"></path></g><g transform="translate(743 419)"><path d="M17.2 -10.2C20 -5 18.5 2.4 14.9 7.2C11.3 11.9 5.7 14.1 0.8 13.6C-4 13.1 -8 10 -11.3 5.5C-14.5 0.9 -17 -5.2 -15 -9.9C-13 -14.6 -6.5 -18 0.3 -18.2C7.2 -18.4 14.3 -15.4 17.2 -10.2Z" stroke="#dd86ae" fill="none" stroke-width="2"></path></g><g transform="translate(168 378)"><path d="M7.7 -3.6C9.8 -0.8 11.3 3.3 9.9 6.3C8.5 9.3 4.2 11.3 0.4 11.1C-3.5 10.9 -7.1 8.5 -9.4 4.9C-11.7 1.4 -12.9 -3.3 -11.1 -5.9C-9.3 -8.5 -4.7 -9 -0.9 -8.5C2.8 -7.9 5.6 -6.4 7.7 -3.6Z" stroke="#dd86ae" fill="none" stroke-width="2"></path></g><g transform="translate(464 266)"><path d="M11.7 -6.1C14.1 -2.6 14.2 2.8 11.9 6.4C9.6 10 4.8 11.8 -0.1 11.8C-4.9 11.8 -9.8 10.1 -12.8 6.1C-15.9 2.1 -17.1 -4.2 -14.7 -7.8C-12.2 -11.4 -6.1 -12.2 -0.7 -11.7C4.6 -11.3 9.3 -9.7 11.7 -6.1Z" stroke="#dd86ae" fill="none" stroke-width="2"></path></g><g transform="translate(533 349)"><path d="M14.1 -7.4C17.5 -2.1 19.1 4.9 16.5 9.4C13.8 13.9 6.9 15.8 1 15.2C-5 14.6 -9.9 11.6 -13.5 6.6C-17 1.6 -19.2 -5.4 -16.7 -10C-14.2 -14.7 -7.1 -17.1 -0.9 -16.6C5.3 -16.1 10.6 -12.6 14.1 -7.4Z" stroke="#dd86ae" fill="none" stroke-width="2"></path></g><g transform="translate(591 300)"><path d="M19 -12.1C22 -5.6 20.3 2.5 16.3 7.2C12.3 12 6.2 13.3 -0.4 13.5C-7 13.7 -14 12.9 -18 8.2C-22 3.5 -23 -5.2 -19.5 -11.9C-16 -18.6 -8 -23.5 0 -23.5C7.9 -23.4 15.9 -18.6 19 -12.1Z" stroke="#dd86ae" fill="none" stroke-width="2"></path></g><g transform="translate(466 77)"><path d="M4.9 -2.7C6 -0.8 6.6 1.7 5.6 3.4C4.7 5.1 2.4 6.1 -0.3 6.3C-3 6.5 -6.1 5.9 -7.4 3.9C-8.8 1.9 -8.5 -1.4 -7 -3.5C-5.5 -5.6 -2.7 -6.4 -0.5 -6.2C1.8 -5.9 3.7 -4.5 4.9 -2.7Z" stroke="#dd86ae" fill="none" stroke-width="2"></path></g><g transform="translate(47 68)"><path d="M8.9 -4.3C11.4 -0.9 13 3.8 11.4 7.7C9.8 11.6 4.9 14.6 0.2 14.5C-4.4 14.4 -8.9 11 -12 6.3C-15.1 1.6 -16.8 -4.6 -14.6 -7.8C-12.3 -11 -6.2 -11.3 -1.5 -10.5C3.2 -9.6 6.5 -7.6 8.9 -4.3Z" stroke="#dd86ae" fill="none" stroke-width="2"></path></g><g transform="translate(324 322)"><path d="M19.5 -9.7C23.9 -3.6 25.3 5.9 21.5 12.1C17.8 18.4 8.9 21.4 0.1 21.4C-8.8 21.3 -17.6 18.3 -20.5 12.5C-23.5 6.7 -20.7 -1.8 -16.3 -7.9C-11.9 -13.9 -5.9 -17.6 0.8 -18.1C7.5 -18.5 15.1 -15.8 19.5 -9.7Z" stroke="#dd86ae" fill="none" stroke-width="2"></path></g><g transform="translate(398 115)"><path d="M5.6 -2.5C7 -0.7 7.8 2.1 6.8 4.3C5.8 6.5 2.9 8 0.6 7.7C-1.8 7.3 -3.5 5.2 -4.6 3C-5.7 0.8 -6 -1.5 -5.2 -2.9C-4.3 -4.4 -2.1 -5.1 0 -5.1C2.1 -5.1 4.1 -4.3 5.6 -2.5Z" stroke="#dd86ae" fill="none" stroke-width="2"></path></g><g transform="translate(219 198)"><path d="M9.5 -4.3C12 -1.1 13.6 3.8 11.8 7.1C10.1 10.4 5 12 0.5 11.8C-4.1 11.5 -8.2 9.3 -10.4 5.8C-12.5 2.3 -12.6 -2.5 -10.5 -5.4C-8.4 -8.3 -4.2 -9.3 -0.4 -9.1C3.5 -8.9 7 -7.5 9.5 -4.3Z" stroke="#dd86ae" fill="none" stroke-width="2"></path></g><g transform="translate(138 308)"><path d="M12.4 -8C14.1 -4.2 12.1 0.8 9.5 4.3C6.8 7.7 3.4 9.6 -0.2 9.7C-3.7 9.7 -7.4 8.1 -10 4.7C-12.6 1.3 -14 -3.8 -12.1 -7.7C-10.3 -11.6 -5.1 -14.2 0.1 -14.3C5.4 -14.4 10.7 -11.8 12.4 -8Z" stroke="#dd86ae" fill="none" stroke-width="2"></path></g><g transform="translate(78 173)"><path d="M15.4 -10.7C17.3 -5.7 14.2 0.3 10.8 4.9C7.4 9.5 3.7 12.5 0.1 12.5C-3.5 12.4 -7 9.2 -9.5 5.2C-12 1.1 -13.6 -3.8 -11.8 -8.7C-10.1 -13.6 -5 -18.5 0.9 -19C6.8 -19.5 13.6 -15.7 15.4 -10.7Z" stroke="#dd86ae" fill="none" stroke-width="2"></path></g><g transform="translate(896 574)"><path d="M16.3 -9.1C19.6 -3.7 19.7 3.9 16.5 8.4C13.2 12.9 6.6 14.4 1.3 13.7C-3.9 12.9 -7.8 9.8 -9.8 6C-11.8 2.2 -11.9 -2.3 -9.9 -7C-8 -11.7 -4 -16.4 1.3 -17.2C6.5 -17.9 13 -14.6 16.3 -9.1Z" stroke="#dd86ae" fill="none" stroke-width="2"></path></g><g transform="translate(213 541)"><path d="M19.1 -8.7C24.1 -2.4 27.1 7.5 23.6 13.4C20 19.4 10 21.4 0.7 21C-8.6 20.6 -17.2 17.7 -21.8 11.1C-26.4 4.6 -27.1 -5.7 -22.8 -11.6C-18.5 -17.5 -9.3 -19.1 -1.1 -18.4C7.1 -17.8 14.1 -15 19.1 -8.7Z" stroke="#dd86ae" fill="none" stroke-width="2"></path></g><g transform="translate(648 190)"><path d="M7.8 -4.6C8.8 -2.8 7.4 0.3 5.7 3.1C4 5.8 2 8.2 -0.1 8.2C-2.2 8.3 -4.3 6 -5.7 3.5C-7.1 0.9 -7.7 -1.9 -6.6 -3.8C-5.5 -5.7 -2.8 -6.5 0.3 -6.7C3.4 -6.9 6.8 -6.4 7.8 -4.6Z" stroke="#dd86ae" fill="none" stroke-width="2"></path></g><g transform="translate(779 96)"><path d="M13.6 -8.9C15.8 -4.1 14.4 1.7 11.6 5.7C8.7 9.6 4.4 11.7 -0.5 12C-5.3 12.2 -10.5 10.7 -14.1 6.3C-17.7 1.9 -19.7 -5.3 -17 -10.3C-14.4 -15.4 -7.2 -18.4 -0.7 -17.9C5.7 -17.5 11.4 -13.7 13.6 -8.9Z" stroke="#dd86ae" fill="none" stroke-width="2"></path></g></g></svg>