<svg id="visual" viewBox="0 0 900 600" width="900" height="600" xmlns="http://www.w3.org/2000/svg" xmlns:xlink="http://www.w3.org/1999/xlink" version="1.1"><rect x="0" y="0" width="900" height="600" fill="#ab537c"></rect><g transform="translate(561.7988337361171 258.67154481947597)"><path d="M218.9 -455.8C229.4 -373 146.3 -204.8 187.6 -114.5C228.8 -24.3 394.4 -12.2 393.7 -0.4C393 11.3 225.9 22.7 187.5 117.8C149.1 212.9 239.3 391.8 229.5 497.8C219.7 603.8 109.8 636.9 54 543.4C-1.8 449.8 -3.7 229.7 -68.5 155.4C-133.3 81.2 -261.1 152.8 -372.6 151.3C-484.2 149.7 -579.6 74.8 -608.2 -16.5C-636.8 -107.8 -598.5 -215.7 -486 -215.7C-373.5 -215.7 -186.8 -107.8 -93.4 -142.8C0 -177.7 0 -355.3 52.1 -445.5C104.2 -535.8 208.3 -538.5 218.9 -455.8" fill="#FFFFFF"></path></g></svg>