<svg id="visual" viewBox="0 0 900 600" width="900" height="600" xmlns="http://www.w3.org/2000/svg" xmlns:xlink="http://www.w3.org/1999/xlink" version="1.1"><rect x="0" y="0" width="900" height="600" fill="#f5f6f7"></rect><defs><linearGradient id="grad1_0" x1="33.3%" y1="100%" x2="100%" y2="0%"><stop offset="20%" stop-color="#f5f6f7" stop-opacity="1"></stop><stop offset="80%" stop-color="#f5f6f7" stop-opacity="1"></stop></linearGradient></defs><defs><linearGradient id="grad2_0" x1="0%" y1="100%" x2="66.7%" y2="0%"><stop offset="20%" stop-color="#f5f6f7" stop-opacity="1"></stop><stop offset="80%" stop-color="#f5f6f7" stop-opacity="1"></stop></linearGradient></defs><g transform="translate(900, 600)"><path d="M-478 0C-444.2 -27.6 -410.4 -55.3 -411.4 -93.9C-412.4 -132.5 -448.2 -182.1 -438.5 -211.2C-428.9 -240.3 -374 -248.9 -347.1 -276.8C-320.3 -304.7 -321.6 -351.9 -298.7 -374.5C-275.7 -397.1 -228.5 -395 -190 -394.6C-151.5 -394.3 -121.7 -395.7 -91.5 -400.7C-61.2 -405.7 -30.6 -414.4 0 -423L0 0Z" fill="#423cfa"></path></g><g transform="translate(0, 0)"><path d="M447 0C430.2 31 413.5 62.1 398.7 91C384 119.9 371.3 146.7 357.7 172.3C344.1 197.8 329.6 222.1 317.4 253.1C305.2 284.1 295.2 321.8 273.7 343.2C252.2 364.6 219.1 369.7 190.9 396.4C162.7 423.2 139.3 471.5 108.3 474.5C77.3 477.6 38.7 435.3 0 393L0 0Z" fill="#423cfa"></path></g></svg>