<svg id="visual" viewBox="0 0 900 600" width="900" height="600" xmlns="http://www.w3.org/2000/svg" xmlns:xlink="http://www.w3.org/1999/xlink" version="1.1"><rect width="900" height="600" fill="#FFFFFF"></rect><g><g transform="translate(152 284)"><path d="M19.7 -11.4C24.8 -2.6 27.7 7.5 24 14.8C20.3 22.1 10.2 26.6 -0.1 26.7C-10.4 26.8 -20.9 22.5 -24.4 15.2C-27.9 8 -24.4 -2 -19.2 -10.9C-14 -19.9 -7 -27.6 0.2 -27.7C7.3 -27.8 14.6 -20.2 19.7 -11.4Z" stroke="#dd86ae" fill="none" stroke-width="1"></path></g><g transform="translate(315 506)"><path d="M3.9 -2.4C4.6 -1.1 4.3 0.6 3.5 2.1C2.7 3.5 1.4 4.7 0 4.7C-1.5 4.8 -2.9 3.6 -3.5 2.3C-4.1 1 -3.8 -0.5 -3.1 -1.9C-2.3 -3.2 -1.2 -4.4 0.2 -4.5C1.6 -4.7 3.2 -3.7 3.9 -2.4Z" stroke="#dd86ae" fill="none" stroke-width="1"></path></g><g transform="translate(270 337)"><path d="M12.6 -6.8C15 -3.2 14.6 2.5 12 6.8C9.4 11.2 4.7 14.2 0.1 14.1C-4.6 14.1 -9.2 11 -11.8 6.7C-14.4 2.3 -15.1 -3.4 -12.8 -7C-10.5 -10.5 -5.3 -11.9 -0.1 -11.9C5.1 -11.8 10.3 -10.4 12.6 -6.8Z" stroke="#dd86ae" fill="none" stroke-width="1"></path></g><g transform="translate(729 545)"><path d="M2.3 -1.2C2.8 -0.3 3.1 0.8 2.7 1.8C2.2 2.8 1.1 3.6 0 3.7C-1.2 3.7 -2.3 2.8 -3 1.7C-3.6 0.6 -3.7 -0.8 -3.1 -1.7C-2.6 -2.6 -1.3 -3 -0.2 -2.9C0.9 -2.8 1.7 -2.1 2.3 -1.2Z" stroke="#dd86ae" fill="none" stroke-width="1"></path></g><g transform="translate(804 333)"><path d="M10.3 -6.5C12.3 -2.5 12.2 2.3 10.2 6C8.1 9.8 4 12.5 0.2 12.4C-3.7 12.3 -7.3 9.3 -9 5.9C-10.6 2.4 -10.1 -1.6 -8.3 -5.6C-6.4 -9.5 -3.2 -13.5 0.5 -13.7C4.1 -14 8.3 -10.6 10.3 -6.5Z" stroke="#dd86ae" fill="none" stroke-width="1"></path></g><g transform="translate(259 244)"><path d="M12.5 -6.3C15.9 -1.2 18.3 5.3 16 9.3C13.8 13.3 6.9 14.7 1.2 14C-4.4 13.3 -8.8 10.4 -10.9 6.6C-12.9 2.7 -12.6 -2.2 -10.4 -6.6C-8.2 -11 -4.1 -14.8 0.2 -14.9C4.5 -15.1 9 -11.4 12.5 -6.3Z" stroke="#dd86ae" fill="none" stroke-width="1"></path></g><g transform="translate(382 294)"><path d="M5.8 -3C7.3 -0.8 8.1 2.2 7 4.2C6 6.2 3 7.3 -0.2 7.4C-3.3 7.5 -6.6 6.6 -7.8 4.6C-8.9 2.5 -7.8 -0.7 -6.2 -3C-4.5 -5.3 -2.3 -6.6 0 -6.6C2.2 -6.5 4.3 -5.1 5.8 -3Z" stroke="#dd86ae" fill="none" stroke-width="1"></path></g><g transform="translate(887 582)"><path d="M20.9 -10C25.8 -3.7 27.4 6.6 23.4 11.8C19.4 17 9.7 17.2 1.4 16.5C-7 15.7 -14 13.9 -18 8.7C-22 3.5 -23 -5.2 -19.5 -10.7C-16 -16.3 -8 -18.8 0 -18.8C8 -18.8 16.1 -16.4 20.9 -10Z" stroke="#dd86ae" fill="none" stroke-width="1"></path></g><g transform="translate(89 368)"><path d="M14 -10.6C16.8 -3.3 16.8 3.2 14 10.7C11.1 18.3 5.6 27 -0.5 27.2C-6.5 27.5 -13 19.4 -17.2 11C-21.5 2.6 -23.5 -6.1 -20.2 -13.7C-17 -21.3 -8.5 -27.9 -1.4 -27.1C5.6 -26.3 11.2 -18 14 -10.6Z" stroke="#dd86ae" fill="none" stroke-width="1"></path></g><g transform="translate(514 211)"><path d="M8.2 -4.2C10.2 -1.3 11.1 2.8 9.5 5.7C7.9 8.6 4 10.4 -0.8 10.8C-5.5 11.3 -11 10.4 -13.7 6.8C-16.5 3.1 -16.6 -3.2 -13.8 -6.5C-11.1 -9.9 -5.5 -10.1 -1.2 -9.4C3.1 -8.7 6.3 -7.1 8.2 -4.2Z" stroke="#dd86ae" fill="none" stroke-width="1"></path></g><g transform="translate(370 98)"><path d="M20.8 -13.7C23.1 -7.9 18.6 0.1 14 6.9C9.4 13.8 4.7 19.5 -1 20C-6.7 20.6 -13.3 16.1 -16.4 10.1C-19.4 4.2 -18.9 -3.2 -15.6 -9.6C-12.2 -15.9 -6.1 -21.2 1.5 -22.1C9.2 -23 18.4 -19.5 20.8 -13.7Z" stroke="#dd86ae" fill="none" stroke-width="1"></path></g><g transform="translate(246 11)"><path d="M17.2 -8.9C20.7 -3.8 21 4.2 17.5 10.2C14.1 16.2 7.1 20.1 0.7 19.7C-5.7 19.3 -11.5 14.6 -14.5 8.8C-17.6 3.1 -18 -3.8 -15.2 -8.5C-12.3 -13.1 -6.1 -15.6 0.3 -15.8C6.8 -16 13.7 -13.9 17.2 -8.9Z" stroke="#dd86ae" fill="none" stroke-width="1"></path></g><g transform="translate(494 83)"><path d="M5.6 -3.5C6.8 -1.2 7 1.5 5.8 3.5C4.7 5.5 2.4 7 -0.1 7C-2.5 7.1 -4.9 5.7 -5.8 3.7C-6.7 1.8 -6 -0.6 -4.8 -3C-3.6 -5.4 -1.8 -7.7 0.2 -7.8C2.2 -7.9 4.4 -5.9 5.6 -3.5Z" stroke="#dd86ae" fill="none" stroke-width="1"></path></g><g transform="translate(767 409)"><path d="M12.5 -6.9C14.7 -3.3 14.1 2.2 11.5 5.5C8.9 8.8 4.5 9.9 0.7 9.5C-3 9 -6 7.1 -7.9 4.2C-9.7 1.3 -10.5 -2.6 -9 -5.7C-7.5 -8.7 -3.7 -11 0.7 -11.4C5.1 -11.8 10.3 -10.4 12.5 -6.9Z" stroke="#dd86ae" fill="none" stroke-width="1"></path></g><g transform="translate(795 133)"><path d="M14.8 -8.8C17.4 -3.9 16.6 2.6 13.6 7.9C10.6 13.1 5.3 17.1 -1.9 18.2C-9.2 19.3 -18.3 17.6 -22.8 11.5C-27.3 5.4 -27.2 -5.1 -22.6 -11C-18 -17 -9 -18.4 -1.5 -17.5C6.1 -16.7 12.1 -13.6 14.8 -8.8Z" stroke="#dd86ae" fill="none" stroke-width="1"></path></g><g transform="translate(436 354)"><path d="M12.6 -7.4C14.7 -3.7 13.6 1.8 10.9 6.2C8.3 10.6 4.2 14 -1.1 14.6C-6.3 15.3 -12.6 13.1 -14.6 9C-16.6 4.9 -14.4 -1 -11.2 -5.4C-8.1 -9.7 -4 -12.5 0.6 -12.8C5.3 -13.2 10.6 -11.2 12.6 -7.4Z" stroke="#dd86ae" fill="none" stroke-width="1"></path></g><g transform="translate(456 262)"><path d="M15.1 -9.6C17.6 -4.3 16.3 2.2 13.2 6.5C10.1 10.7 5 12.8 -0.4 13C-5.7 13.2 -11.5 11.6 -13.4 8C-15.2 4.5 -13.3 -1 -10.4 -6.5C-7.5 -12 -3.8 -17.4 1.3 -18.1C6.3 -18.9 12.6 -14.9 15.1 -9.6Z" stroke="#dd86ae" fill="none" stroke-width="1"></path></g><g transform="translate(859 189)"><path d="M13.2 -6.9C17.1 -0.8 20.4 6.4 18.1 10.8C15.7 15.2 7.9 16.7 1.4 15.9C-5.1 15.1 -10.2 12 -13.4 7.1C-16.5 2.3 -17.7 -4.3 -15.2 -9.6C-12.6 -14.9 -6.3 -18.8 -0.8 -18.3C4.6 -17.8 9.3 -12.9 13.2 -6.9Z" stroke="#dd86ae" fill="none" stroke-width="1"></path></g><g transform="translate(230 113)"><path d="M12 -6C14.4 -2.7 14.5 2.8 12.1 7.1C9.7 11.4 4.8 14.4 -0.5 14.7C-5.7 15 -11.5 12.5 -13.2 8.5C-15 4.6 -12.7 -0.7 -9.9 -4.3C-7 -7.8 -3.5 -9.6 0.6 -9.9C4.8 -10.3 9.5 -9.3 12 -6Z" stroke="#dd86ae" fill="none" stroke-width="1"></path></g><g transform="translate(605 472)"><path d="M2.1 -1.5C2.5 -0.5 2.4 0.4 2 1.1C1.5 1.7 0.8 2.2 -0.2 2.3C-1.1 2.4 -2.3 2.2 -2.8 1.4C-3.4 0.7 -3.4 -0.7 -2.8 -1.8C-2.3 -2.9 -1.1 -3.8 -0.1 -3.7C0.9 -3.6 1.7 -2.6 2.1 -1.5Z" stroke="#dd86ae" fill="none" stroke-width="1"></path></g><g transform="translate(866 52)"><path d="M7.1 -4C8.6 -1.5 8.8 1.9 7.4 3.9C6 5.9 3 6.6 0.3 6.5C-2.5 6.3 -4.9 5.3 -6.7 3C-8.5 0.8 -9.6 -2.7 -8.4 -5.1C-7.1 -7.5 -3.6 -8.8 -0.4 -8.5C2.8 -8.3 5.6 -6.6 7.1 -4Z" stroke="#dd86ae" fill="none" stroke-width="1"></path></g><g transform="translate(349 404)"><path d="M5.6 -3.3C6.8 -1.3 6.8 1.3 5.7 3.7C4.5 6 2.3 8.1 -0.3 8.3C-2.8 8.5 -5.7 6.7 -6.8 4.3C-7.9 2 -7.3 -0.9 -5.9 -3.1C-4.5 -5.2 -2.2 -6.6 0 -6.6C2.2 -6.6 4.5 -5.2 5.6 -3.3Z" stroke="#dd86ae" fill="none" stroke-width="1"></path></g><g transform="translate(96 67)"><path d="M17.1 -9.8C21.4 -2.4 23.6 6.2 20.4 11.8C17.2 17.4 8.6 19.8 0.2 19.7C-8.2 19.6 -16.5 16.9 -19.8 11.3C-23.1 5.7 -21.5 -2.9 -17.3 -10.2C-13.2 -17.5 -6.6 -23.5 -0.1 -23.4C6.4 -23.4 12.8 -17.2 17.1 -9.8Z" stroke="#dd86ae" fill="none" stroke-width="1"></path></g></g></svg>